<svg width="195" height="100" viewBox="0 0 195 100" fill="none" xmlns="http://www.w3.org/2000/svg">
<circle cx="50" cy="50" r="50" fill="black"/>
<path d="M45.0546 34.9318C48.6771 34.9318 50.0441 38.3492 50.0441 43.1337C50.0441 55.0264 41.3638 72.6605 30.7013 72.6605C26.2586 72.6605 22.7045 71.0201 20.7223 69.8582L36.0325 22.6973C37.0578 19.5532 36.3743 18.4597 31.3164 18.4597L31.7265 17.0927C38.7665 17.0927 39.9968 16.956 41.3638 15.1789L42.1839 15.4523L30.7013 50.8571C34.1187 43.7488 39.5867 34.9318 45.0546 34.9318ZM30.9747 70.1999C39.0399 70.1999 46.0115 54.2746 46.0115 43.6805C46.0115 40.1947 45.3963 38.2125 43.4142 38.2125C38.7665 38.2125 31.6582 50.1736 28.5825 58.1705L25.0967 68.3545C26.1903 69.243 27.9673 70.1999 30.9747 70.1999ZM44.9601 87.4239C42.9096 87.4239 41.9527 86.467 41.9527 85.3051C41.9527 83.5963 43.4564 82.2294 45.3018 82.2294C47.489 82.2294 48.1725 83.5963 50.223 83.5963C52.9569 83.5963 56.5794 79.4954 59.7918 74.7793C61.0905 60.5627 61.2955 49.6268 61.2272 43.9539C61.2272 39.0327 60.7487 38.0075 59.5868 38.0075C57.9464 38.0075 55.7592 41.835 53.7088 47.0296H52.3418C54.4606 41.2883 57.3996 35.1368 61.0221 35.1368C63.9611 35.1368 64.918 37.4607 64.9864 43.6805C64.9864 49.4218 64.6446 59.4008 63.4827 70.61C71.8213 59.8109 75.8539 50.447 75.8539 44.0906C75.8539 40.5364 74.0768 38.7593 74.0768 36.8456C74.0768 35.8887 74.6919 34.8634 75.9906 34.8634C77.7676 34.8634 78.7929 36.8456 78.7929 41.3566C78.7929 48.67 74.2818 58.3072 67.1052 68.5595C59.7235 79.1536 52.9569 87.4239 44.9601 87.4239Z" fill="white"/>
<circle cx="144.737" cy="50" r="46.4912" stroke="white" stroke-width="7.01754"/>
<path d="M119.902 72.6316V26.1542H151.958V32.3056H127.557V46.9323H149.36V53.0838H127.557V72.6316H119.902ZM153.634 72.6316V36.2015H160.947V41.6011C163.339 37.2268 167.098 35.2446 171.336 35.2446C172.771 35.2446 174.138 35.5864 174.822 36.2015V42.6263C173.728 42.2846 172.43 42.1479 170.926 42.1479C163.954 42.1479 160.947 46.3855 160.947 52.742V72.6316H153.634Z" fill="white"/>
</svg>
