<svg width="541" height="215" viewBox="0 0 541 215" fill="none" xmlns="http://www.w3.org/2000/svg">
<path d="M57.8799 74.9721C66.1746 74.9721 69.3047 82.7973 69.3047 93.7526C69.3047 120.984 49.4287 161.362 25.014 161.362C14.8412 161.362 6.70301 157.606 2.16439 154.946L37.2213 46.9578C39.5689 39.7586 38.0039 37.2546 26.4225 37.2546L27.3616 34.1245C43.4815 34.1245 46.2986 33.8115 49.4287 29.7424L51.3067 30.3684L25.014 111.438C32.8392 95.1611 45.3596 74.9721 57.8799 74.9721ZM25.64 155.728C44.1075 155.728 60.0709 119.263 60.0709 95.0046C60.0709 87.0229 58.6624 82.4843 54.1238 82.4843C43.4815 82.4843 27.2051 109.873 20.1624 128.184L12.1807 151.503C14.6847 153.537 18.7538 155.728 25.64 155.728ZM57.6635 195.167C52.9683 195.167 50.7773 192.976 50.7773 190.316C50.7773 186.403 54.2204 183.273 58.446 183.273C63.4541 183.273 65.0192 186.403 69.7143 186.403C75.9745 186.403 84.2692 177.013 91.6249 166.214C94.5985 133.661 95.068 108.62 94.9115 95.6306C94.9115 84.3623 93.8159 82.0148 91.1554 82.0148C87.3993 82.0148 82.3911 90.779 77.696 102.673H74.5659C79.4176 89.527 86.1472 75.4416 94.442 75.4416C101.172 75.4416 103.363 80.7627 103.519 95.0046C103.519 108.151 102.737 131.001 100.076 156.667C119.17 131.94 128.403 110.499 128.403 95.9436C128.403 87.8054 124.334 83.7363 124.334 79.3542C124.334 77.1631 125.743 74.8156 128.716 74.8156C132.785 74.8156 135.133 79.3542 135.133 89.6835C135.133 106.429 124.804 128.497 108.371 151.972C91.4684 176.23 75.9745 195.167 57.6635 195.167Z" fill="black"></path>
<path d="M150.373 161V54.5771H223.773V68.6625H167.901V102.154H217.826V116.24H167.901V161H150.373ZM227.611 161V77.5832H244.357V89.9471C249.835 79.9308 258.443 75.3922 268.146 75.3922C271.432 75.3922 274.563 76.1747 276.128 77.5832V92.2946C273.624 91.5121 270.65 91.1991 267.207 91.1991C251.243 91.1991 244.357 100.902 244.357 115.457V161H227.611ZM278.133 67.254V48.317H294.879V67.254H278.133ZM278.133 161V77.5832H294.879V161H278.133ZM337.03 163.035C314.963 163.035 301.66 146.602 301.66 119.37C301.66 91.0426 315.276 75.3922 337.03 75.3922C346.577 75.3922 354.402 79.3048 359.723 86.9735V48.317H376.469V161H359.723V150.827C354.402 158.652 346.577 163.035 337.03 163.035ZM339.221 148.949C352.524 148.949 359.723 138.62 359.723 119.37C359.723 100.276 352.211 89.4776 339.221 89.4776C325.918 89.4776 318.719 100.12 318.719 119.37C318.719 138.307 326.231 148.949 339.221 148.949ZM403.083 104.815H386.337C388.998 86.3475 401.675 75.3922 422.49 75.3922C445.183 75.3922 456.451 88.6951 456.451 108.102V140.654C456.451 150.671 457.39 156.461 459.268 161H441.74C440.488 157.87 440.018 153.488 439.862 148.793C432.819 158.652 422.02 163.035 412.004 163.035C395.101 163.035 383.52 155.053 383.52 139.089C383.52 127.665 389.78 119.213 402.301 114.988C413.412 111.232 424.681 110.293 439.705 110.136V108.258C439.705 96.0507 434.071 89.4776 421.238 89.4776C410.439 89.4776 404.648 95.4247 403.083 104.815ZM400.423 138.463C400.423 145.506 406.213 149.888 415.134 149.888C429.063 149.888 439.705 138.776 439.705 125.317V121.561C407.622 121.874 400.423 128.917 400.423 138.463ZM471.714 197.465C468.114 197.465 464.358 196.526 462.48 195.9V183.067H467.019C476.565 183.067 480.165 181.189 487.364 163.817L489.868 158.026L456.376 77.5832H474.374L495.033 129.543L498.633 140.967L502.232 129.543L522.265 77.5832H539.324L501.45 170.703C492.998 191.518 486.582 197.465 471.714 197.465Z" fill="black"></path>
</svg>