<svg width="123" height="60" viewBox="0 0 123 60" fill="none" xmlns="http://www.w3.org/2000/svg">
<circle cx="30.6484" cy="30" r="30" fill="black"></circle>
<path d="M27.6774 21.1591C29.8509 21.1591 30.6711 23.2096 30.6711 26.0802C30.6711 33.2159 25.4629 43.7963 19.0655 43.7963C16.3998 43.7963 14.2673 42.8121 13.0781 42.1149L22.2642 13.8184C22.8793 11.932 22.4692 11.2758 19.4345 11.2758L19.6806 10.4556C23.9046 10.4556 24.6427 10.3736 25.4629 9.30736L25.955 9.4714L19.0655 30.7143C21.1159 26.4493 24.3967 21.1591 27.6774 21.1591ZM19.2295 42.32C24.0686 42.32 28.2516 32.7648 28.2516 26.4083C28.2516 24.3168 27.8825 23.1275 26.6932 23.1275C23.9046 23.1275 19.6396 30.3042 17.7942 35.1023L15.7027 41.2127C16.3588 41.7458 17.4251 42.32 19.2295 42.32ZM27.6207 52.6543C26.3904 52.6543 25.8163 52.0802 25.8163 51.3831C25.8163 50.3578 26.7185 49.5376 27.8258 49.5376C29.1381 49.5376 29.5482 50.3578 30.7785 50.3578C32.4188 50.3578 34.5923 47.8973 36.5198 45.0676C37.299 36.5376 37.422 29.9761 37.381 26.5723C37.381 23.6197 37.0939 23.0045 36.3968 23.0045C35.4125 23.0045 34.1002 25.301 32.8699 28.4178H32.0497C33.321 24.973 35.0844 21.2821 37.2579 21.2821C39.0214 21.2821 39.5955 22.6764 39.6365 26.4083C39.6365 29.8531 39.4314 35.8405 38.7343 42.566C43.7374 36.0865 46.157 30.4682 46.157 26.6544C46.157 24.5219 45.0908 23.4556 45.0908 22.3074C45.0908 21.7332 45.4598 21.1181 46.239 21.1181C47.3053 21.1181 47.9204 22.3074 47.9204 25.014C47.9204 29.402 45.2138 35.1843 40.9078 41.3357C36.4788 47.6922 32.4188 52.6543 27.6207 52.6543Z" fill="white"></path>
<circle cx="87.4922" cy="30" r="27.8947" stroke="black" stroke-width="4.21053"></circle>
<path d="M72.5874 43.579V15.6926H91.8209V19.3834H77.1805V28.1594H90.2625V31.8503H77.1805V43.579H72.5874ZM92.8266 43.579V21.7209H97.2146V24.9607C98.6499 22.3361 100.905 21.1468 103.448 21.1468C104.309 21.1468 105.129 21.3519 105.539 21.7209V25.5758C104.883 25.3708 104.104 25.2888 103.202 25.2888C99.019 25.2888 97.2146 27.8314 97.2146 31.6452V43.579H92.8266Z" fill="black"></path>
<path d="M114.356 6V2.32362H112.932V1.73389H116.477V2.32362H115.059V6H114.356ZM116.74 6V1.73389H117.688L118.892 4.6888L119.037 5.14051L119.181 4.6888L120.373 1.73389H121.295V6H120.592L120.611 2.5432L120.304 3.45916L119.269 6H118.767L117.725 3.45288L117.424 2.56202L117.443 6H116.74Z" fill="black"></path>
</svg>